<svg class="svg-icon" style="width: 1em; height: 1em;vertical-align: middle;fill: currentColor;overflow: hidden;" viewBox="0 0 1024 1024" version="1.1" xmlns="http://www.w3.org/2000/svg"><path d="M512 880a368 368 0 1 1 368-368 368 368 0 0 1-368 368z m0-704a336 336 0 1 0 336 336 336 336 0 0 0-336-336z m0.208 496S320 592 320 465.6c0-73.6 46.496-113.6 95.632-113.6v32a56 56 0 0 0-41.248 18.4 91.392 91.392 0 0 0-20.976 63.2c0 52 44.688 96.48 82.16 124.64a484.544 484.544 0 0 0 76.656 46.24 475.056 475.056 0 0 0 76.416-46.4c37.424-28.16 82.016-72.8 82.016-125.28a87.664 87.664 0 0 0-20.688-61.6 56.784 56.784 0 0 0-41.312-17.76c-36.048 0-96.608 81.28-96.608 81.28S451.248 384 415.632 384v-32c36.8 0 75.024 22.4 96.288 69.92a107.2 107.2 0 0 1 96.72-68.48c48.896 0 95.408 38.24 95.392 111.36C704 592 512.208 672 512.208 672z" fill="#333333" /></svg>